<svg width="2560" height="1107" viewBox="0 0 2560 1107" fill="none" xmlns="http://www.w3.org/2000/svg">
<path d="M-560 1472H3173V-250H-560V1472Z" fill="#273A64"/>
<path d="M983.391 747.963C981.211 746.213 979.17 744.339 977.08 742.513C977.042 742.48 977.004 742.465 976.98 742.446C919.261 692.251 892.354 614.385 914.757 537.235L1109.95 -250H318V-186.294C573.269 233.283 823.849 645.15 823.94 645.312C868.617 718.728 942.51 762.951 1021.49 772.552C1010.8 766.465 1000.41 760.006 990.629 752.868C987.598 751.023 985.131 749.364 983.391 747.968V747.963Z" fill="#7700FF"/>
<path d="M1107.31 -250L902.167 574.837C887.27 627.389 897.812 683.665 935.686 726.143C958.6 751.821 988.361 767.751 1019.77 773.67C1019.84 773.713 1019.96 773.794 1020.06 773.838L2241 1027.47L3173.5 1231.5V-249.995L1107.31 -249.995L1107.31 -250Z" fill="#FF4F12"/>
</svg>
